<?xml version="1.0" standalone="no"?>
<!DOCTYPE svg PUBLIC "-//W3C//DTD SVG 20010904//EN"
 "http://www.w3.org/TR/2001/REC-SVG-20010904/DTD/svg10.dtd">
<svg version="1.0" xmlns="http://www.w3.org/2000/svg"
 width="1200.000000pt" height="630.000000pt" viewBox="0 0 1200.000000 630.000000"
 preserveAspectRatio="xMidYMid meet">

<g transform="translate(0.000000,630.000000) scale(0.100000,-0.100000)"
fill="#008ad7" stroke="none">
<path d="M4705 5279 c-225 -27 -430 -125 -577 -276 -120 -124 -194 -261 -241
-452 -21 -85 -21 -101 -25 -1356 -3 -1137 -1 -1281 13 -1370 75 -458 389 -756
850 -805 119 -13 2431 -13 2550 0 248 26 450 122 607 288 130 138 208 304 243
517 14 89 16 233 13 1370 -4 1255 -4 1271 -25 1356 -47 191 -121 328 -241 452
-151 156 -352 250 -592 277 -104 12 -2474 11 -2575 -1z m1440 -626 c-20 -43
-284 -636 -589 -1318 l-553 -1240 -422 -3 c-231 -1 -421 -1 -421 1 0 2 209
381 464 843 l463 839 544 478 c299 262 545 477 546 477 1 0 -13 -35 -32 -77z
m909 -1491 c410 -750 746 -1365 746 -1368 0 -2 -620 -4 -1377 -4 -757 0 -1374
2 -1371 5 2 3 377 74 832 159 455 85 829 156 831 158 3 2 -189 247 -426 544
-237 296 -433 544 -435 550 -3 6 88 281 202 610 113 330 215 625 226 657 11
32 22 57 23 55 2 -2 339 -616 749 -1366z"/>
</g>
</svg>
